<?xml version="1.0" encoding="utf-8"?>
<!-- Generator: Adobe Illustrator 16.0.0, SVG Export Plug-In . SVG Version: 6.00 Build 0)  -->
<!DOCTYPE svg PUBLIC "-//W3C//DTD SVG 1.1//EN" "http://www.w3.org/Graphics/SVG/1.1/DTD/svg11.dtd">
<svg version="1.1" id="Layer_1" xmlns="http://www.w3.org/2000/svg" xmlns:xlink="http://www.w3.org/1999/xlink" x="0px" y="0px"
	 width="400px" height="200px" viewBox="0 0 400 200" enable-background="new 0 0 400 200" xml:space="preserve">
<path fill="#FFF800" d="M187.5,34.382v131.235c0,8.375-10.134,12.5-16.004,6.63L136.742,137.5H96.875
	c-5.178,0-9.375-4.197-9.375-9.375v-56.25c0-5.178,4.197-9.375,9.375-9.375h39.867l34.754-34.748
	C177.359,21.889,187.5,25.999,187.5,34.382z M258.615,3.961c-5.888-3.602-13.583-1.748-17.186,4.142
	c-3.602,5.89-1.747,13.583,4.143,17.186C270.69,40.649,287.5,68.353,287.5,100c0,28.684-14.093,55.583-37.698,71.955
	c-5.673,3.935-7.081,11.723-3.147,17.396c3.937,5.675,11.726,7.081,17.396,3.147c30.338-21.042,48.45-55.621,48.45-92.498
	C312.5,59.67,291.18,23.876,258.615,3.961z M275,100c0-26.776-14.121-50.694-35.921-64.024c-5.889-3.602-13.583-1.747-17.185,4.144
	c-3.602,5.89-1.747,13.583,4.143,17.185C241.042,66.479,250,82.44,250,100c0,16.393-8.055,31.766-21.546,41.123
	c-5.673,3.936-7.081,11.723-3.147,17.396c2.429,3.5,6.322,5.377,10.282,5.377c2.544,0.001,5.026-0.777,7.113-2.229
	C262.926,147.638,275,124.585,275,100z M237.5,100c0-13.171-6.713-25.137-17.958-32.009c-5.89-3.599-13.584-1.744-17.185,4.147
	c-3.6,5.89-1.743,13.584,4.146,17.184c3.755,2.294,5.996,6.287,5.996,10.678c-0.002,4.105-2.018,7.948-5.392,10.286
	c-5.673,3.933-7.084,11.721-3.151,17.395c3.934,5.674,11.723,7.084,17.395,3.151C231.463,123.821,237.5,112.296,237.5,100z"/>
</svg>
